<?xml version="1.0" standalone="no"?>
<svg xmlns="http://www.w3.org/2000/svg" viewBox="0 0 107.836 124.518" width="107.836" height="124.518"><polygon fill="none" stroke="#5e5e6b" stroke-width="3" points="106.336,31.8795 106.336,92.6385 53.918,123.018 1.5,92.6385 1.5,31.8795 53.918,1.5"></polygon><path fill="#000000" fill-rule="nonzero" d="M5.91 14.79L5.91 14.79Q6.23 14.74 6.56 14.67Q6.89 14.60 7.27 14.49L7.27 14.49Q6.81 14.05 6.04 13.95L6.04 13.95Q5.96 14.38 5.91 14.79ZM17.09 6.34L17.09 6.34Q16.98 7.52 16.47 8.80Q15.97 10.09 15.07 11.29Q14.16 12.50 12.88 13.54Q11.59 14.57 9.95 15.23L9.95 15.23Q10.20 15.70 10.42 16.21Q10.64 16.73 10.80 17.39L10.80 17.39Q11.05 18.27 11.22 19.20Q11.40 20.13 11.53 21Q11.65 21.88 11.74 22.63Q11.84 23.38 11.89 23.87L11.89 23.87Q12.00 24.69 12.43 25.03Q12.85 25.38 13.38 25.42Q13.92 25.46 14.45 25.29Q14.98 25.13 15.29 24.94L15.29 24.94Q15.26 24.96 14.98 25.42Q14.71 25.87 14.25 26.37Q13.78 26.88 13.14 27.25Q12.50 27.62 11.70 27.48L11.70 27.48Q11.16 27.40 10.73 27.11Q10.31 26.82 9.99 26.26Q9.68 25.70 9.49 24.83Q9.30 23.95 9.24 22.70L9.24 22.70Q9.19 21 9.12 19.46Q9.05 17.91 8.53 16.60L8.53 16.60Q8.45 16.38 8.37 16.17Q8.29 15.97 8.18 15.80L8.18 15.80Q7.05 16.08 5.66 16.16L5.66 16.16Q5.47 17.20 5.25 18.29Q5.03 19.39 4.80 20.43Q4.57 21.46 4.31 22.38Q4.05 23.30 3.80 23.95L3.80 23.95Q3.53 24.64 3.10 25.06Q2.68 25.48 1.75 25.48L1.75 25.48Q1.20 25.48 0.79 25.24Q0.38 24.99 0 24.55L0 24.55Q0.11 24.47 0.34 24.29Q0.57 24.12 0.89 23.58Q1.20 23.05 1.57 22.07Q1.94 21.08 2.32 19.41L2.32 19.41Q2.46 18.73 2.69 17.81Q2.93 16.90 3.20 15.80L3.20 15.80Q2.11 15.20 2.19 14.19L2.19 14.19Q2.24 13.56 2.76 13.13Q3.28 12.69 4.02 12.52L4.02 12.52Q4.38 11.10 4.74 9.65Q5.11 8.20 5.44 6.93Q5.77 5.66 6.04 4.63Q6.32 3.61 6.48 3.01L6.48 3.01Q5.99 3.34 5.50 3.75L5.50 3.75Q5.06 4.10 4.55 4.55Q4.05 5.00 3.61 5.50L3.61 5.50Q3.39 5.33 3.25 5.14Q3.12 4.95 3.04 4.81L3.04 4.81Q2.93 4.65 2.87 4.46L2.87 4.46Q2.68 4.07 2.68 3.62Q2.68 3.17 3.34 2.71L3.34 2.71Q3.69 2.46 4.42 2.00Q5.14 1.53 6.21 1.09Q7.27 0.66 8.68 0.33Q10.09 0 11.81 0L11.81 0Q13.54 0 14.60 0.68Q15.67 1.37 16.24 2.35Q16.82 3.34 16.99 4.43Q17.17 5.52 17.09 6.34ZM8.83 13.86L8.83 13.86Q9.79 13.40 10.73 12.71Q11.68 12.03 12.44 11.07Q13.21 10.12 13.73 8.90Q14.25 7.68 14.38 6.15L14.38 6.15Q14.49 4.79 14.21 3.87Q13.92 2.95 13.36 2.41Q12.80 1.86 12.09 1.63Q11.38 1.39 10.66 1.39L10.66 1.39Q10.01 1.39 9.34 1.59Q8.67 1.78 8.04 2.08L8.04 2.08Q8.12 2.11 8.23 2.21L8.23 2.21Q8.29 2.30 8.35 2.42Q8.42 2.54 8.45 2.68L8.45 2.68Q7.82 5.33 7.44 7.11Q7.05 8.89 6.81 10.01L6.81 10.01Q6.51 11.32 6.37 12.11L6.37 12.11Q6.34 12.22 6.33 12.33Q6.32 12.44 6.29 12.58L6.29 12.58Q6.89 12.71 7.55 13.00Q8.20 13.29 8.83 13.86Z" transform="translate(45.361, 22.5)"></path><g fill="#000000" color="#000000" transform="translate(31.918 58.01741976351351) scale(0.44)"><svg width="100.0" height="100.0" x="0.0" y="0.0" viewBox="0 0 100 100"><g><path fill="currentColor" d="M28.3,21.6c-0.1,0-0.3,0-0.4-0.1l-14.5-6.4c-0.4-0.2-0.6-0.5-0.6-0.9s0.2-0.8,0.6-0.9l14.5-6.4   c0.3-0.1,0.5-0.1,0.8,0l14.5,6.4c0.4,0.2,0.6,0.5,0.6,0.9s-0.2,0.8-0.6,0.9l-14.5,6.4C28.6,21.5,28.5,21.6,28.3,21.6z M16.3,14.1   l12.1,5.3l12.1-5.3L28.3,8.8L16.3,14.1z"></path><rect x="27.3" y="20.6" fill="currentColor" width="2" height="72.1"></rect><path fill="currentColor" d="M28.3,93.7c-0.1,0-0.3,0-0.4-0.1l-14.5-6.4c-0.4-0.2-0.6-0.5-0.6-0.9V14.1h2v71.5l13.5,6l13.5-6V14.1h2   v72.1c0,0.4-0.2,0.8-0.6,0.9l-14.5,6.4C28.6,93.6,28.5,93.7,28.3,93.7z"></path><path fill="currentColor" d="M50.8,35.7c-0.1,0-0.3,0-0.4-0.1l-7.9-3.5l0.8-1.8l7.5,3.3l12.1-5.3L50.8,23l-7.5,3.3l-0.8-1.8l7.9-3.5   c0.3-0.1,0.5-0.1,0.8,0l14.5,6.4c0.4,0.2,0.6,0.5,0.6,0.9s-0.2,0.8-0.6,0.9l-14.5,6.4C51,35.7,50.9,35.7,50.8,35.7z"></path><rect x="49.8" y="34.7" fill="currentColor" width="2" height="48.1"></rect><path fill="currentColor" d="M50.8,83.8c-0.1,0-0.3,0-0.4-0.1l-7.9-3.5l0.8-1.8l7.5,3.3l13.5-6V28.3h2v48.1c0,0.4-0.2,0.8-0.6,0.9   l-14.5,6.4C51,83.8,50.9,83.8,50.8,83.8z"></path><path fill="currentColor" d="M72.8,50.1c-0.1,0-0.3,0-0.4-0.1l-7.5-3.3l0.8-1.8l7.1,3.1l12.1-5.3l-12.1-5.3l-7.1,3.1l-0.8-1.8l7.5-3.3   c0.3-0.1,0.5-0.1,0.8,0l14.5,6.4c0.4,0.2,0.6,0.5,0.6,0.9s-0.2,0.8-0.6,0.9L73.2,50C73.1,50,73,50.1,72.8,50.1z"></path><rect x="71.8" y="49.1" fill="currentColor" width="2" height="23.9"></rect><path fill="currentColor" d="M72.8,73.9c-0.1,0-0.3,0-0.4-0.1l-7.6-3.3l0.8-1.8l7.2,3.2l13.5-6V42.7h2v23.9c0,0.4-0.2,0.8-0.6,0.9   l-14.5,6.4C73.1,73.9,73,73.9,72.8,73.9z"></path></g></svg></g></svg>